<svg width="500" height="520" xmlns="http://www.w3.org/2000/svg" version="1.1"><g transform="translate(0,10)"><g><path class="link" d="M10,101.38157894736841C127.5,101.38157894736841 127.5,41.38157894736842 245,41.38157894736842" style="stroke-width: 82.7632; fill: none; stroke: rgb(227, 42, 42); stroke-opacity: 0.4;"></path><path class="link" d="M255,38.94736842105263C372.5,38.94736842105263 372.5,53.94736842105263 490,53.94736842105263" style="stroke-width: 77.8947; fill: none; stroke: rgb(180, 191, 105); stroke-opacity: 0.4;"></path><path class="link" d="M255,119.53947368421052C372.5,119.53947368421052 372.5,134.53947368421052 490,134.53947368421052" style="stroke-width: 53.5526; fill: none; stroke: rgb(105, 191, 126); stroke-opacity: 0.4;"></path><path class="link" d="M10,306.1184210526316C127.5,306.1184210526316 127.5,119.53947368421052 245,119.53947368421052" style="stroke-width: 53.5526; fill: none; stroke: rgb(71, 132, 224); stroke-opacity: 0.4;"></path><path class="link" d="M10,159.80263157894734C127.5,159.80263157894734 127.5,217.43421052631578 245,217.43421052631578" style="stroke-width: 34.0789; fill: none; stroke: rgb(227, 42, 42); stroke-opacity: 0.4;"></path><path class="link" d="M255,173.35526315789474C372.5,173.35526315789474 372.5,198.09210526315786 490,198.09210526315786" style="stroke-width: 34.0789; fill: none; stroke: rgb(105, 159, 191); stroke-opacity: 0.4;"></path><path class="link" d="M10,349.93421052631584C127.5,349.93421052631584 127.5,173.35526315789474 245,173.35526315789474" style="stroke-width: 34.0789; fill: none; stroke: rgb(71, 132, 224); stroke-opacity: 0.4;"></path><path class="link" d="M255,217.43421052631578C372.5,217.43421052631578 372.5,340.06578947368416 490,340.06578947368416" style="stroke-width: 34.0789; fill: none; stroke: rgb(191, 169, 105); stroke-opacity: 0.4;"></path><path class="link" d="M10,381.5789473684211C127.5,381.5789473684211 127.5,259.07894736842104 245,259.07894736842104" style="stroke-width: 29.2105; fill: none; stroke: rgb(71, 132, 224); stroke-opacity: 0.4;"></path><path class="link" d="M255,298.2894736842105C372.5,298.2894736842105 372.5,381.7105263157894 490,381.7105263157894" style="stroke-width: 29.2105; fill: none; stroke: rgb(191, 105, 137); stroke-opacity: 0.4;"></path><path class="link" d="M10,191.44736842105263C127.5,191.44736842105263 127.5,337.5 245,337.5" style="stroke-width: 29.2105; fill: none; stroke: rgb(227, 42, 42); stroke-opacity: 0.4;"></path><path class="link" d="M255,337.5C372.5,337.5 372.5,254.3421052631579 490,254.3421052631579" style="stroke-width: 29.2105; fill: none; stroke: rgb(105, 191, 191); stroke-opacity: 0.4;"></path><path class="link" d="M255,376.7105263157895C372.5,376.7105263157895 372.5,293.55263157894734 490,293.55263157894734" style="stroke-width: 29.2105; fill: none; stroke: rgb(148, 105, 191); stroke-opacity: 0.4;"></path><path class="link" d="M10,410.7894736842106C127.5,410.7894736842106 127.5,298.2894736842105 245,298.2894736842105" style="stroke-width: 29.2105; fill: none; stroke: rgb(71, 132, 224); stroke-opacity: 0.4;"></path><path class="link" d="M10,220.6578947368421C127.5,220.6578947368421 127.5,376.7105263157895 245,376.7105263157895" style="stroke-width: 29.2105; fill: none; stroke: rgb(227, 42, 42); stroke-opacity: 0.4;"></path><path class="link" d="M255,261.5131578947368C372.5,261.5131578947368 372.5,418.4868421052631 490,418.4868421052631" style="stroke-width: 24.3421; fill: none; stroke: rgb(148, 191, 105); stroke-opacity: 0.4;"></path><path class="link" d="M10,245C127.5,245 127.5,411.0526315789474 245,411.0526315789474" style="stroke-width: 19.4737; fill: none; stroke: rgb(227, 42, 42); stroke-opacity: 0.4;"></path><path class="link" d="M10,430.2631578947369C127.5,430.2631578947369 127.5,435.6578947368421 245,435.6578947368421" style="stroke-width: 9.73684; fill: none; stroke: rgb(71, 132, 224); stroke-opacity: 0.4;"></path><path class="link" d="M255,411.05263157894734C372.5,411.05263157894734 372.5,445.52631578947364 490,445.52631578947364" style="stroke-width: 9.73684; fill: none; stroke: rgb(116, 191, 105); stroke-opacity: 0.4;"></path><path class="link" d="M255,435.6578947368421C372.5,435.6578947368421 372.5,465.2631578947368 490,465.2631578947368" style="stroke-width: 9.73684; fill: none; stroke: rgb(191, 105, 169); stroke-opacity: 0.4;"></path><path class="link" d="M255,403.75C372.5,403.75 372.5,163.75 490,163.75" style="stroke-width: 4.86842; fill: none; stroke: rgb(116, 191, 105); stroke-opacity: 0.4;"></path><path class="link" d="M255,246.90789473684208C372.5,246.90789473684208 372.5,95.32894736842105 490,95.32894736842105" style="stroke-width: 4.86842; fill: none; stroke: rgb(148, 191, 105); stroke-opacity: 0.4;"></path><path class="link" d="M10,266.90789473684214C127.5,266.90789473684214 127.5,497.56578947368416 245,497.56578947368416" style="stroke-width: 4.86842; fill: none; stroke: rgb(227, 42, 42); stroke-opacity: 0.4;"></path><path class="link" d="M10,437.5657894736842C127.5,437.5657894736842 127.5,467.82894736842104 245,467.82894736842104" style="stroke-width: 4.86842; fill: none; stroke: rgb(71, 132, 224); stroke-opacity: 0.4;"></path><path class="link" d="M10,257.17105263157896C127.5,257.17105263157896 127.5,452.9605263157895 245,452.9605263157895" style="stroke-width: 4.86842; fill: none; stroke: rgb(227, 42, 42); stroke-opacity: 0.4;"></path><path class="link" d="M10,262.0394736842106C127.5,262.0394736842106 127.5,482.6973684210526 245,482.6973684210526" style="stroke-width: 4.86842; fill: none; stroke: rgb(227, 42, 42); stroke-opacity: 0.4;"></path><path class="link" d="M255,452.9605263157895C372.5,452.9605263157895 372.5,217.56578947368416 490,217.56578947368416" style="stroke-width: 4.86842; fill: none; stroke: rgb(105, 126, 191); stroke-opacity: 0.4;"></path><path class="link" d="M255,497.56578947368416C372.5,497.56578947368416 372.5,222.43421052631575 490,222.43421052631575" style="stroke-width: 4.86842; fill: none; stroke: rgb(116, 105, 191); stroke-opacity: 0.4;"></path><path class="link" d="M255,80.32894736842105C372.5,80.32894736842105 372.5,237.30263157894734 490,237.30263157894734" style="stroke-width: 4.86842; fill: none; stroke: rgb(180, 191, 105); stroke-opacity: 0.4;"></path><path class="link" d="M255,467.82894736842104C372.5,467.82894736842104 372.5,310.59210526315786 490,310.59210526315786" style="stroke-width: 4.86842; fill: none; stroke: rgb(180, 105, 191); stroke-opacity: 0.4;"></path><path class="link" d="M255,418.35526315789474C372.5,418.35526315789474 372.5,482.5657894736842 490,482.5657894736842" style="stroke-width: 4.86842; fill: none; stroke: rgb(116, 191, 105); stroke-opacity: 0.4;"></path><path class="link" d="M255,482.6973684210526C372.5,482.6973684210526 372.5,168.61842105263156 490,168.61842105263156" style="stroke-width: 4.86842; fill: none; stroke: rgb(105, 191, 159); stroke-opacity: 0.4;"></path></g><g><g class="node" transform="translate(245,244.4736842105263)"><rect height="29.210526315789473" width="10"><title>Blok
6</title></rect><text x="16" y="14.605263157894736" dy=".35em" text-anchor="start" style="font-size: 11px; font-family: Arial, Helvetica; pointer-events: none;">Blok</text></g><g class="node" transform="translate(245,362.10526315789474)"><rect height="29.210526315789473" width="10"><title>Bussemaker
6</title></rect><text x="16" y="14.605263157894736" dy=".35em" text-anchor="start" style="font-size: 11px; font-family: Arial, Helvetica; pointer-events: none;">Bussemaker</text></g><g class="node" transform="translate(245,465.39473684210526)"><rect height="4.868421052631579" width="10"><title>Dekker
1</title></rect><text x="16" y="2.4342105263157894" dy=".35em" text-anchor="start" style="font-size: 11px; font-family: Arial, Helvetica; pointer-events: none;">Dekker</text></g><g class="node" transform="translate(245,450.5263157894737)"><rect height="4.868421052631579" width="10"><title>Dijksma
1</title></rect><text x="16" y="2.4342105263157894" dy=".35em" text-anchor="start" style="font-size: 11px; font-family: Arial, Helvetica; pointer-events: none;">Dijksma</text></g><g class="node" transform="translate(245,322.89473684210526)"><rect height="29.210526315789473" width="10"><title>Dijsselbloem
6</title></rect><text x="16" y="14.605263157894736" dy=".35em" text-anchor="start" style="font-size: 11px; font-family: Arial, Helvetica; pointer-events: none;">Dijsselbloem</text></g><g class="node" transform="translate(245,92.76315789473684)"><rect height="53.55263157894737" width="10"><title>Kamp
11</title></rect><text x="16" y="26.776315789473685" dy=".35em" text-anchor="start" style="font-size: 11px; font-family: Arial, Helvetica; pointer-events: none;">Kamp</text></g><g class="node" transform="translate(245,401.3157894736842)"><rect height="19.473684210526315" width="10"><title>Koenders
4</title></rect><text x="16" y="9.736842105263158" dy=".35em" text-anchor="start" style="font-size: 11px; font-family: Arial, Helvetica; pointer-events: none;">Koenders</text></g><g class="node" transform="translate(245,495.1315789473684)"><rect height="4.868421052631579" width="10"><title>Mansveld
1</title></rect><text x="16" y="2.4342105263157894" dy=".35em" text-anchor="start" style="font-size: 11px; font-family: Arial, Helvetica; pointer-events: none;">Mansveld</text></g><g class="node" transform="translate(245,0)"><rect height="82.76315789473684" width="10"><title>Plasterk
17</title></rect><text x="16" y="41.38157894736842" dy=".35em" text-anchor="start" style="font-size: 11px; font-family: Arial, Helvetica; pointer-events: none;">Plasterk</text></g><g class="node" transform="translate(245,200.39473684210526)"><rect height="34.078947368421055" width="10"><title>Ploumen
7</title></rect><text x="16" y="17.039473684210527" dy=".35em" text-anchor="start" style="font-size: 11px; font-family: Arial, Helvetica; pointer-events: none;">Ploumen</text></g><g class="node" transform="translate(245,283.6842105263158)"><rect height="29.210526315789473" width="10"><title>Schippers
6</title></rect><text x="16" y="14.605263157894736" dy=".35em" text-anchor="start" style="font-size: 11px; font-family: Arial, Helvetica; pointer-events: none;">Schippers</text></g><g class="node" transform="translate(245,156.31578947368422)"><rect height="34.078947368421055" width="10"><title>Schultz
7</title></rect><text x="16" y="17.039473684210527" dy=".35em" text-anchor="start" style="font-size: 11px; font-family: Arial, Helvetica; pointer-events: none;">Schultz</text></g><g class="node" transform="translate(245,480.2631578947368)"><rect height="4.868421052631579" width="10"><title>Timmermans
1</title></rect><text x="16" y="2.4342105263157894" dy=".35em" text-anchor="start" style="font-size: 11px; font-family: Arial, Helvetica; pointer-events: none;">Timmermans</text></g><g class="node" transform="translate(245,430.7894736842105)"><rect height="9.736842105263158" width="10"><title>Van der Steur
2</title></rect><text x="16" y="4.868421052631579" dy=".35em" text-anchor="start" style="font-size: 11px; font-family: Arial, Helvetica; pointer-events: none;">Van der Steur</text></g><g class="node" transform="translate(490,15)"><rect height="82.76315789473684" width="10" style="fill: rgb(102, 102, 102);"><title>Binnenlandse Zaken
17</title></rect><text x="-6" y="41.38157894736842" dy=".35em" text-anchor="end" style="font-size: 11px; font-family: Arial, Helvetica; pointer-events: none;">Binnenlandse Zaken</text></g><g class="node" transform="translate(490,323.02631578947364)"><rect height="34.078947368421055" width="10" style="fill: rgb(102, 102, 102);"><title>BUHOS
7</title></rect><text x="-6" y="17.039473684210527" dy=".35em" text-anchor="end" style="font-size: 11px; font-family: Arial, Helvetica; pointer-events: none;">BUHOS</text></g><g class="node" transform="translate(490,480.13157894736844)"><rect height="4.868421052631579" width="10" style="fill: rgb(102, 102, 102);"><title>Buitenlandse Zaken
1</title></rect><text x="-6" y="2.4342105263157894" dy=".35em" text-anchor="end" style="font-size: 11px; font-family: Arial, Helvetica; pointer-events: none;">Buitenlandse Zaken</text></g><g class="node" transform="translate(490,107.76315789473684)"><rect height="63.28947368421052" width="10" style="fill: rgb(102, 102, 102);"><title>Economische Zaken
13</title></rect><text x="-6" y="31.64473684210526" dy=".35em" text-anchor="end" style="font-size: 11px; font-family: Arial, Helvetica; pointer-events: none;">Economische Zaken</text></g><g class="node" transform="translate(490,440.6578947368421)"><rect height="9.736842105263158" width="10" style="fill: rgb(102, 102, 102);"><title>Europese Zaken
2</title></rect><text x="-6" y="4.868421052631579" dy=".35em" text-anchor="end" style="font-size: 11px; font-family: Arial, Helvetica; pointer-events: none;">Europese Zaken</text></g><g class="node" transform="translate(490,234.86842105263156)"><rect height="34.078947368421055" width="10" style="fill: rgb(102, 102, 102);"><title>Financiën
7</title></rect><text x="-6" y="17.039473684210527" dy=".35em" text-anchor="end" style="font-size: 11px; font-family: Arial, Helvetica; pointer-events: none;">Financiën</text></g><g class="node" transform="translate(490,181.05263157894734)"><rect height="43.815789473684205" width="10" style="fill: rgb(102, 102, 102);"><title>Infrastructuur en Milieu
9</title></rect><text x="-6" y="21.907894736842103" dy=".35em" text-anchor="end" style="font-size: 11px; font-family: Arial, Helvetica; pointer-events: none;">Infrastructuur en Milieu</text></g><g class="node" transform="translate(490,278.9473684210526)"><rect height="34.078947368421055" width="10" style="fill: rgb(102, 102, 102);"><title>Onderwijs Cultuur Wetenschap
7</title></rect><text x="-6" y="17.039473684210527" dy=".35em" text-anchor="end" style="font-size: 11px; font-family: Arial, Helvetica; pointer-events: none;">Onderwijs Cultuur Wetenschap</text></g><g class="node" transform="translate(490,460.39473684210526)"><rect height="9.736842105263158" width="10" style="fill: rgb(102, 102, 102);"><title>Veiligheid en Justitie
2</title></rect><text x="-6" y="4.868421052631579" dy=".35em" text-anchor="end" style="font-size: 11px; font-family: Arial, Helvetica; pointer-events: none;">Veiligheid en Justitie</text></g><g class="node" transform="translate(490,367.1052631578947)"><rect height="29.210526315789473" width="10" style="fill: rgb(102, 102, 102);"><title>Volksgezondheid
6</title></rect><text x="-6" y="14.605263157894736" dy=".35em" text-anchor="end" style="font-size: 11px; font-family: Arial, Helvetica; pointer-events: none;">Volksgezondheid</text></g><g class="node" transform="translate(490,406.31578947368416)"><rect height="24.342105263157894" width="10" style="fill: rgb(102, 102, 102);"><title>Wonen en Rijksdienst
5</title></rect><text x="-6" y="12.171052631578947" dy=".35em" text-anchor="end" style="font-size: 11px; font-family: Arial, Helvetica; pointer-events: none;">Wonen en Rijksdienst</text></g><g class="node" transform="translate(0,60)"><rect height="209.3421052631579" width="10"><title>PvdA
43</title></rect><text x="16" y="104.67105263157895" dy=".35em" text-anchor="start" style="font-size: 11px; font-family: Arial, Helvetica; pointer-events: none;">PvdA</text></g><g class="node" transform="translate(0,279.3421052631579)"><rect height="160.6578947368421" width="10"><title>VVD
33</title></rect><text x="16" y="80.32894736842105" dy=".35em" text-anchor="start" style="font-size: 11px; font-family: Arial, Helvetica; pointer-events: none;">VVD</text></g></g></g></svg>