<svg width="500" height="520" xmlns="http://www.w3.org/2000/svg" version="1.1"><g transform="translate(0,10)"><g><path class="link" d="M255,53.94736842105263C372.5,53.94736842105263 372.5,38.94736842105263 490,38.94736842105263" style="stroke-width: 77.8947; fill: none; stroke: rgb(158, 191, 105); stroke-opacity: 0.4;"></path><path class="link" d="M10,98.94736842105263C127.5,98.94736842105263 127.5,53.94736842105263 245,53.94736842105263" style="stroke-width: 77.8947; fill: none; stroke: rgb(242, 21, 21); stroke-opacity: 0.4;"></path><path class="link" d="M255,134.53947368421052C372.5,134.53947368421052 372.5,119.53947368421052 490,119.53947368421052" style="stroke-width: 53.5526; fill: none; stroke: rgb(105, 191, 131); stroke-opacity: 0.4;"></path><path class="link" d="M10,310.9868421052632C127.5,310.9868421052632 127.5,144.2763157894737 245,144.2763157894737" style="stroke-width: 53.5526; fill: none; stroke: rgb(47, 112, 209); stroke-opacity: 0.4;"></path><path class="link" d="M255,198.09210526315786C372.5,198.09210526315786 372.5,173.35526315789474 490,173.35526315789474" style="stroke-width: 34.0789; fill: none; stroke: rgb(105, 131, 191); stroke-opacity: 0.4;"></path><path class="link" d="M10,174.40789473684208C127.5,174.40789473684208 127.5,251.90789473684208 245,251.90789473684208" style="stroke-width: 34.0789; fill: none; stroke: rgb(242, 21, 21); stroke-opacity: 0.4;"></path><path class="link" d="M255,340.06578947368416C372.5,340.06578947368416 372.5,217.43421052631578 490,217.43421052631578" style="stroke-width: 34.0789; fill: none; stroke: rgb(191, 184, 105); stroke-opacity: 0.4;"></path><path class="link" d="M10,354.8026315789474C127.5,354.8026315789474 127.5,207.828947368421 245,207.828947368421" style="stroke-width: 34.0789; fill: none; stroke: rgb(47, 112, 209); stroke-opacity: 0.4;"></path><path class="link" d="M10,237.6973684210526C127.5,237.6973684210526 127.5,340.06578947368416 245,340.06578947368416" style="stroke-width: 34.0789; fill: none; stroke: rgb(242, 21, 21); stroke-opacity: 0.4;"></path><path class="link" d="M255,381.7105263157894C372.5,381.7105263157894 372.5,298.2894736842105 490,298.2894736842105" style="stroke-width: 29.2105; fill: none; stroke: rgb(191, 105, 184); stroke-opacity: 0.4;"></path><path class="link" d="M10,391.3157894736842C127.5,391.3157894736842 127.5,381.7105263157894 245,381.7105263157894" style="stroke-width: 29.2105; fill: none; stroke: rgb(47, 112, 209); stroke-opacity: 0.4;"></path><path class="link" d="M255,293.55263157894734C372.5,293.55263157894734 372.5,376.7105263157895 490,376.7105263157895" style="stroke-width: 29.2105; fill: none; stroke: rgb(118, 105, 191); stroke-opacity: 0.4;"></path><path class="link" d="M255,254.3421052631579C372.5,254.3421052631579 372.5,337.5 490,337.5" style="stroke-width: 29.2105; fill: none; stroke: rgb(105, 171, 191); stroke-opacity: 0.4;"></path><path class="link" d="M10,206.05263157894734C127.5,206.05263157894734 127.5,293.55263157894734 245,293.55263157894734" style="stroke-width: 29.2105; fill: none; stroke: rgb(242, 21, 21); stroke-opacity: 0.4;"></path><path class="link" d="M10,418.0921052631579C127.5,418.0921052631579 127.5,418.4868421052631 245,418.4868421052631" style="stroke-width: 24.3421; fill: none; stroke: rgb(47, 112, 209); stroke-opacity: 0.4;"></path><path class="link" d="M255,418.4868421052631C372.5,418.4868421052631 372.5,261.5131578947368 490,261.5131578947368" style="stroke-width: 24.3421; fill: none; stroke: rgb(191, 105, 145); stroke-opacity: 0.4;"></path><path class="link" d="M10,435.13157894736844C127.5,435.13157894736844 127.5,465.2631578947368 245,465.2631578947368" style="stroke-width: 9.73684; fill: none; stroke: rgb(47, 112, 209); stroke-opacity: 0.4;"></path><path class="link" d="M255,445.52631578947364C372.5,445.52631578947364 372.5,411.05263157894734 490,411.05263157894734" style="stroke-width: 9.73684; fill: none; stroke: rgb(105, 191, 171); stroke-opacity: 0.4;"></path><path class="link" d="M10,259.6052631578947C127.5,259.6052631578947 127.5,445.52631578947364 245,445.52631578947364" style="stroke-width: 9.73684; fill: none; stroke: rgb(242, 21, 21); stroke-opacity: 0.4;"></path><path class="link" d="M10,152.5C127.5,152.5 127.5,185.92105263157893 245,185.92105263157893" style="stroke-width: 9.73684; fill: none; stroke: rgb(242, 21, 21); stroke-opacity: 0.4;"></path><path class="link" d="M255,465.2631578947368C372.5,465.2631578947368 372.5,435.6578947368421 490,435.6578947368421" style="stroke-width: 9.73684; fill: none; stroke: rgb(158, 105, 191); stroke-opacity: 0.4;"></path><path class="link" d="M10,142.76315789473685C127.5,142.76315789473685 127.5,112.63157894736841 245,112.63157894736841" style="stroke-width: 9.73684; fill: none; stroke: rgb(242, 21, 21); stroke-opacity: 0.4;"></path><path class="link" d="M255,95.32894736842105C372.5,95.32894736842105 372.5,246.90789473684208 490,246.90789473684208" style="stroke-width: 4.86842; fill: none; stroke: rgb(158, 191, 105); stroke-opacity: 0.4;"></path><path class="link" d="M255,482.5657894736842C372.5,482.5657894736842 372.5,418.35526315789474 490,418.35526315789474" style="stroke-width: 4.86842; fill: none; stroke: rgb(118, 191, 105); stroke-opacity: 0.4;"></path><path class="link" d="M255,237.30263157894734C372.5,237.30263157894734 372.5,80.32894736842105 490,80.32894736842105" style="stroke-width: 4.86842; fill: none; stroke: rgb(105, 171, 191); stroke-opacity: 0.4;"></path><path class="link" d="M10,266.907894736842C127.5,266.907894736842 127.5,482.5657894736842 245,482.5657894736842" style="stroke-width: 4.86842; fill: none; stroke: rgb(242, 21, 21); stroke-opacity: 0.4;"></path><path class="link" d="M255,217.56578947368416C372.5,217.56578947368416 372.5,452.9605263157895 490,452.9605263157895" style="stroke-width: 4.86842; fill: none; stroke: rgb(105, 131, 191); stroke-opacity: 0.4;"></path><path class="link" d="M255,222.43421052631575C372.5,222.43421052631575 372.5,497.56578947368416 490,497.56578947368416" style="stroke-width: 4.86842; fill: none; stroke: rgb(105, 131, 191); stroke-opacity: 0.4;"></path><path class="link" d="M10,374.2763157894737C127.5,374.2763157894737 127.5,310.59210526315786 245,310.59210526315786" style="stroke-width: 4.86842; fill: none; stroke: rgb(47, 112, 209); stroke-opacity: 0.4;"></path><path class="link" d="M255,310.59210526315786C372.5,310.59210526315786 372.5,467.82894736842104 490,467.82894736842104" style="stroke-width: 4.86842; fill: none; stroke: rgb(118, 105, 191); stroke-opacity: 0.4;"></path><path class="link" d="M255,168.61842105263156C372.5,168.61842105263156 372.5,482.6973684210526 490,482.6973684210526" style="stroke-width: 4.86842; fill: none; stroke: rgb(105, 191, 131); stroke-opacity: 0.4;"></path><path class="link" d="M10,281.7763157894737C127.5,281.7763157894737 127.5,95.32894736842105 245,95.32894736842105" style="stroke-width: 4.86842; fill: none; stroke: rgb(47, 112, 209); stroke-opacity: 0.4;"></path><path class="link" d="M255,163.75C372.5,163.75 372.5,403.75 490,403.75" style="stroke-width: 4.86842; fill: none; stroke: rgb(105, 191, 131); stroke-opacity: 0.4;"></path></g><g><g class="node" transform="translate(490,244.4736842105263)"><rect height="29.210526315789473" width="10" style="fill: rgb(102, 102, 102);"><title>Blok
6</title></rect><text x="-6" y="14.605263157894736" dy=".35em" text-anchor="end" style="font-size: 11px; font-family: Arial, Helvetica; pointer-events: none;">Blok</text></g><g class="node" transform="translate(490,362.10526315789474)"><rect height="29.210526315789473" width="10" style="fill: rgb(102, 102, 102);"><title>Bussemaker
6</title></rect><text x="-6" y="14.605263157894736" dy=".35em" text-anchor="end" style="font-size: 11px; font-family: Arial, Helvetica; pointer-events: none;">Bussemaker</text></g><g class="node" transform="translate(490,465.39473684210526)"><rect height="4.868421052631579" width="10" style="fill: rgb(102, 102, 102);"><title>Dekker
1</title></rect><text x="-6" y="2.4342105263157894" dy=".35em" text-anchor="end" style="font-size: 11px; font-family: Arial, Helvetica; pointer-events: none;">Dekker</text></g><g class="node" transform="translate(490,450.5263157894737)"><rect height="4.868421052631579" width="10" style="fill: rgb(102, 102, 102);"><title>Dijksma
1</title></rect><text x="-6" y="2.4342105263157894" dy=".35em" text-anchor="end" style="font-size: 11px; font-family: Arial, Helvetica; pointer-events: none;">Dijksma</text></g><g class="node" transform="translate(490,322.89473684210526)"><rect height="29.210526315789473" width="10" style="fill: rgb(102, 102, 102);"><title>Dijsselbloem
6</title></rect><text x="-6" y="14.605263157894736" dy=".35em" text-anchor="end" style="font-size: 11px; font-family: Arial, Helvetica; pointer-events: none;">Dijsselbloem</text></g><g class="node" transform="translate(490,92.76315789473684)"><rect height="53.55263157894737" width="10" style="fill: rgb(102, 102, 102);"><title>Kamp
11</title></rect><text x="-6" y="26.776315789473685" dy=".35em" text-anchor="end" style="font-size: 11px; font-family: Arial, Helvetica; pointer-events: none;">Kamp</text></g><g class="node" transform="translate(490,401.3157894736842)"><rect height="19.473684210526315" width="10" style="fill: rgb(102, 102, 102);"><title>Koenders
4</title></rect><text x="-6" y="9.736842105263158" dy=".35em" text-anchor="end" style="font-size: 11px; font-family: Arial, Helvetica; pointer-events: none;">Koenders</text></g><g class="node" transform="translate(490,495.1315789473684)"><rect height="4.868421052631579" width="10" style="fill: rgb(102, 102, 102);"><title>Mansveld
1</title></rect><text x="-6" y="2.4342105263157894" dy=".35em" text-anchor="end" style="font-size: 11px; font-family: Arial, Helvetica; pointer-events: none;">Mansveld</text></g><g class="node" transform="translate(490,0)"><rect height="82.76315789473684" width="10" style="fill: rgb(102, 102, 102);"><title>Plasterk
17</title></rect><text x="-6" y="41.38157894736842" dy=".35em" text-anchor="end" style="font-size: 11px; font-family: Arial, Helvetica; pointer-events: none;">Plasterk</text></g><g class="node" transform="translate(490,200.39473684210526)"><rect height="34.078947368421055" width="10" style="fill: rgb(102, 102, 102);"><title>Ploumen
7</title></rect><text x="-6" y="17.039473684210527" dy=".35em" text-anchor="end" style="font-size: 11px; font-family: Arial, Helvetica; pointer-events: none;">Ploumen</text></g><g class="node" transform="translate(490,283.6842105263158)"><rect height="29.210526315789473" width="10" style="fill: rgb(102, 102, 102);"><title>Schippers
6</title></rect><text x="-6" y="14.605263157894736" dy=".35em" text-anchor="end" style="font-size: 11px; font-family: Arial, Helvetica; pointer-events: none;">Schippers</text></g><g class="node" transform="translate(490,156.31578947368422)"><rect height="34.078947368421055" width="10" style="fill: rgb(102, 102, 102);"><title>Schultz
7</title></rect><text x="-6" y="17.039473684210527" dy=".35em" text-anchor="end" style="font-size: 11px; font-family: Arial, Helvetica; pointer-events: none;">Schultz</text></g><g class="node" transform="translate(490,480.2631578947368)"><rect height="4.868421052631579" width="10" style="fill: rgb(102, 102, 102);"><title>Timmermans
1</title></rect><text x="-6" y="2.4342105263157894" dy=".35em" text-anchor="end" style="font-size: 11px; font-family: Arial, Helvetica; pointer-events: none;">Timmermans</text></g><g class="node" transform="translate(490,430.7894736842105)"><rect height="9.736842105263158" width="10" style="fill: rgb(102, 102, 102);"><title>Van der Steur
2</title></rect><text x="-6" y="4.868421052631579" dy=".35em" text-anchor="end" style="font-size: 11px; font-family: Arial, Helvetica; pointer-events: none;">Van der Steur</text></g><g class="node" transform="translate(245,15)"><rect height="82.76315789473684" width="10"><title>Binnenlandse Zaken
17</title></rect><text x="16" y="41.38157894736842" dy=".35em" text-anchor="start" style="font-size: 11px; font-family: Arial, Helvetica; pointer-events: none;">Binnenlandse Zaken</text></g><g class="node" transform="translate(245,323.02631578947364)"><rect height="34.078947368421055" width="10"><title>BUHOS
7</title></rect><text x="16" y="17.039473684210527" dy=".35em" text-anchor="start" style="font-size: 11px; font-family: Arial, Helvetica; pointer-events: none;">BUHOS</text></g><g class="node" transform="translate(245,480.13157894736844)"><rect height="4.868421052631579" width="10"><title>Buitenlandse Zaken
1</title></rect><text x="16" y="2.4342105263157894" dy=".35em" text-anchor="start" style="font-size: 11px; font-family: Arial, Helvetica; pointer-events: none;">Buitenlandse Zaken</text></g><g class="node" transform="translate(245,107.76315789473684)"><rect height="63.28947368421052" width="10"><title>Economische Zaken
13</title></rect><text x="16" y="31.64473684210526" dy=".35em" text-anchor="start" style="font-size: 11px; font-family: Arial, Helvetica; pointer-events: none;">Economische Zaken</text></g><g class="node" transform="translate(245,440.6578947368421)"><rect height="9.736842105263158" width="10"><title>Europese Zaken
2</title></rect><text x="16" y="4.868421052631579" dy=".35em" text-anchor="start" style="font-size: 11px; font-family: Arial, Helvetica; pointer-events: none;">Europese Zaken</text></g><g class="node" transform="translate(245,234.86842105263156)"><rect height="34.078947368421055" width="10"><title>Financiën
7</title></rect><text x="16" y="17.039473684210527" dy=".35em" text-anchor="start" style="font-size: 11px; font-family: Arial, Helvetica; pointer-events: none;">Financiën</text></g><g class="node" transform="translate(245,181.05263157894734)"><rect height="43.815789473684205" width="10"><title>Infrastructuur en Milieu
9</title></rect><text x="16" y="21.907894736842103" dy=".35em" text-anchor="start" style="font-size: 11px; font-family: Arial, Helvetica; pointer-events: none;">Infrastructuur en Milieu</text></g><g class="node" transform="translate(245,278.9473684210526)"><rect height="34.078947368421055" width="10"><title>Onderwijs Cultuur Wetenschap
7</title></rect><text x="16" y="17.039473684210527" dy=".35em" text-anchor="start" style="font-size: 11px; font-family: Arial, Helvetica; pointer-events: none;">Onderwijs Cultuur Wetenschap</text></g><g class="node" transform="translate(245,460.39473684210526)"><rect height="9.736842105263158" width="10"><title>Veiligheid en Justitie
2</title></rect><text x="16" y="4.868421052631579" dy=".35em" text-anchor="start" style="font-size: 11px; font-family: Arial, Helvetica; pointer-events: none;">Veiligheid en Justitie</text></g><g class="node" transform="translate(245,367.1052631578947)"><rect height="29.210526315789473" width="10"><title>Volksgezondheid
6</title></rect><text x="16" y="14.605263157894736" dy=".35em" text-anchor="start" style="font-size: 11px; font-family: Arial, Helvetica; pointer-events: none;">Volksgezondheid</text></g><g class="node" transform="translate(245,406.31578947368416)"><rect height="24.342105263157894" width="10"><title>Wonen en Rijksdienst
5</title></rect><text x="16" y="12.171052631578947" dy=".35em" text-anchor="start" style="font-size: 11px; font-family: Arial, Helvetica; pointer-events: none;">Wonen en Rijksdienst</text></g><g class="node" transform="translate(0,60)"><rect height="209.3421052631579" width="10"><title>PvdA
43</title></rect><text x="16" y="104.67105263157895" dy=".35em" text-anchor="start" style="font-size: 11px; font-family: Arial, Helvetica; pointer-events: none;">PvdA</text></g><g class="node" transform="translate(0,279.3421052631579)"><rect height="160.6578947368421" width="10"><title>VVD
33</title></rect><text x="16" y="80.32894736842105" dy=".35em" text-anchor="start" style="font-size: 11px; font-family: Arial, Helvetica; pointer-events: none;">VVD</text></g></g></g></svg>